# xmcd
# Track frame offsets:
# 150
# 10501
# 21233
# 31131
# 48265
#
# Disc length: 782 seconds
# Revision: 0
# Processed by: cddbd v1.5.2PL0 Copyright (c) Steve Scherf et al.
# Submitted via: VisiTrax 2.10.2.252 - For more info visit www.synapsa.com
#
DISCID=2b030c05
DTITLE=Electric Mud - Demo
DYEAR=2008
DGENRE=Blues
TTITLE0=Crawling king snake
TTITLE1=Papa papa
TTITLE2=Rollin and tumblin
TTITLE3=All your lovin
TTITLE4=Stones in my passway
EXTD=
EXTT0=
EXTT1=
EXTT2=
EXTT3=
EXTT4=
PLAYORDER=
